<svg width="20" height="20" viewBox="0 0 20 20" fill="none" xmlns="http://www.w3.org/2000/svg">
<g clip-path="url(#clip0_190_141)">
<path d="M10 20C15.5228 20 20 15.5228 20 10C20 4.47715 15.5228 0 10 0C4.47715 0 0 4.47715 0 10C0 15.5228 4.47715 20 10 20Z" fill="#1C1C1C"/>
<path d="M10 20C15.5228 20 20 15.5228 20 10C20 4.47715 15.5228 0 10 0C4.47715 0 0 4.47715 0 10C0 15.5228 4.47715 20 10 20Z" fill="url(#paint0_linear_190_141)"/>
<path d="M6.85617 5.42301H8.40433V11.3317C8.40434 11.7742 8.49558 12.1625 8.67808 12.4967C8.83758 12.7672 9.04792 12.9907 9.30858 13.1674V14.9894H5.26942V13.5013H6.69444L6.70389 7.48309C6.4009 7.71305 6.08778 7.89537 5.76426 8.02951C5.40037 8.18415 5.02276 8.2523 4.63159 8.23413V6.80134C4.84081 6.8104 5.07736 6.7512 5.34112 6.62387C5.61406 6.48741 5.88251 6.30998 6.14634 6.09165C6.3937 5.88693 6.61681 5.67784 6.8162 5.46512V5.42301H6.85587L6.85603 5.42285L6.85617 5.42301ZM14.4692 11.3317C14.4692 12.0632 14.3096 12.7044 13.9901 13.2553C13.6798 13.8063 13.2325 14.2354 12.6484 14.5424C12.0734 14.8404 11.3934 14.9894 10.6085 14.9894C10.5285 14.9894 10.4495 14.9872 10.3715 14.9839V13.5282C10.4575 13.5358 10.5457 13.5399 10.6359 13.5399C11.0831 13.5399 11.4756 13.4495 11.8133 13.2689C12.1601 13.0793 12.4248 12.8218 12.6074 12.4967C12.7899 12.1625 12.8811 11.7742 12.8811 11.3317L12.9426 5.42301H14.5307L14.4692 11.3317Z" fill="white"/>
<g opacity="0.3">
<path d="M9.03592 11.9634C9.03592 12.4059 9.12712 12.7944 9.30967 13.1285C9.46915 13.399 9.67939 13.6224 9.94001 13.7991V15.6212H5.90101V14.133H7.32618L7.33548 8.11478C7.03253 8.34472 6.71934 8.52706 6.39584 8.6612C6.03198 8.81583 5.65434 8.884 5.26318 8.86581V7.43302C5.47239 7.44208 5.70896 7.38287 5.97271 7.25556C6.24562 7.11911 6.51414 6.94164 6.77793 6.72333C7.02521 6.51867 7.24845 6.30975 7.44779 6.09711V6.05469H9.03592V11.9634ZM15.101 11.9634C15.101 12.6949 14.9411 13.3361 14.6217 13.887C14.3114 14.4379 13.8641 14.867 13.28 15.1741C12.705 15.4721 12.0251 15.6212 11.2402 15.6212C11.1601 15.6212 11.081 15.619 11.0029 15.6157V14.1599C11.089 14.1675 11.1772 14.1716 11.2675 14.1716C11.7147 14.1716 12.1072 14.0812 12.4449 13.9006C12.7917 13.711 13.0564 13.4536 13.2389 13.1285C13.4215 12.7944 13.5129 12.4059 13.5129 11.9634L13.5742 6.05469H15.1623L15.101 11.9634Z" fill="white"/>
</g>
</g>
<defs>
<linearGradient id="paint0_linear_190_141" x1="0" y1="10" x2="18.5" y2="10" gradientUnits="userSpaceOnUse">
<stop stop-color="#AD3B6C"/>
<stop offset="1" stop-color="#E6543B"/>
</linearGradient>
<clipPath id="clip0_190_141">
<rect width="20" height="20" fill="white"/>
</clipPath>
</defs>
</svg>
